<?xml version="1.0" standalone="no"?><!DOCTYPE svg PUBLIC "-//W3C//DTD SVG 1.1//EN" "http://www.w3.org/Graphics/SVG/1.1/DTD/svg11.dtd"><svg t="1552923364569" class="icon" style="" viewBox="0 0 1024 1024" version="1.1" xmlns="http://www.w3.org/2000/svg" p-id="7695" xmlns:xlink="http://www.w3.org/1999/xlink" width="200" height="200"><defs><style type="text/css"></style></defs><path d="M938.666667 977.066667c-5.12-168.96-108.373333-314.026667-254.293334-378.026667C775.68 541.866667 836.266667 440.32 836.266667 324.266667 836.266667 145.066667 691.2 0 512 0S187.733333 145.066667 187.733333 324.266667c0 116.053333 60.586667 217.6 152.746667 274.773333C193.706667 663.893333 90.453333 808.106667 85.333333 977.066667v4.266666c0 23.893333 18.773333 42.666667 42.666667 42.666667s42.666667-18.773333 42.666667-42.666667c4.266667-184.32 155.306667-332.8 341.333333-332.8s337.066667 148.48 341.333333 332.8c0 23.893333 18.773333 42.666667 42.666667 42.666667s42.666667-18.773333 42.666667-42.666667v-4.266666zM512 563.2c-132.266667 0-238.933333-106.666667-238.933333-238.933333s106.666667-238.933333 238.933333-238.933334 238.933333 106.666667 238.933333 238.933334-106.666667 238.933333-238.933333 238.933333z" fill="#4990EE" p-id="7696"></path></svg>